<svg width="426" height="100" viewBox="0 0 426 100" fill="none" xmlns="http://www.w3.org/2000/svg">
<path d="M317.332 39.5078C315.697 36.6428 313.92 33.8665 312 31.179L313.44 30.3042L314.958 32.358C316.177 31.8762 317.345 31.3818 318.46 30.8747C319.628 30.3423 320.899 30.0507 322.274 30C325.413 30.0507 327.813 31.217 329.474 33.4989C330.252 34.5891 330.94 35.7807 331.536 37.0738C332.055 38.4429 332.535 39.7994 332.976 41.1432C333.184 42.2334 333.443 43.349 333.755 44.4899C334.066 45.6816 334.468 46.7972 334.961 47.8367C335.428 48.8255 336.09 49.6876 336.946 50.4228C338.635 51.9235 341.364 51.9235 343.054 50.4228C343.91 49.6876 344.571 48.8255 345.038 47.8367C345.531 46.7972 345.934 45.6816 346.245 44.4899C346.556 43.349 346.816 42.2334 347.023 41.1432C347.464 39.7994 347.944 38.4429 348.463 37.0738C349.06 35.7807 349.747 34.5891 350.526 33.4989C352.186 31.217 354.586 30.0507 357.726 30C359.101 30.0507 360.372 30.3423 361.539 30.8747C362.655 31.3818 363.823 31.8762 365.042 32.358L366.56 30.3042L368 31.179C366.08 33.8665 364.303 36.6428 362.668 39.5078C361.967 39.3557 361.332 39.1275 360.761 38.8232C360.164 38.4429 359.542 38.1006 358.893 37.7964C358.322 37.4922 357.635 37.2006 356.83 36.9217C356.052 36.6682 355.157 36.5414 354.145 36.5414C352.744 36.5414 351.538 36.909 350.526 37.6443C349.41 38.4303 348.852 39.5458 348.852 40.991C348.852 42.2841 349.28 43.5518 350.137 44.7942C350.941 46.0872 351.953 47.0254 353.172 47.6085C354.936 48.1663 356.74 48.4198 358.582 48.3692C359.594 48.3692 360.605 48.3184 361.617 48.217V53.6174H354.534L342.319 100L344.619 58.3823C344.763 55.7934 342.653 53.6174 340 53.6174C337.347 53.6174 335.237 55.7934 335.38 58.3823L337.681 100L325.465 53.6174H318.382V48.217C319.394 48.3184 320.406 48.3692 321.418 48.3692C323.26 48.4198 325.063 48.1663 326.827 47.6085C328.047 47.0254 329.059 46.0872 329.863 44.7942C330.719 43.5518 331.147 42.2841 331.147 40.991C331.147 39.5458 330.589 38.4303 329.474 37.6443C328.462 36.909 327.256 36.5414 325.855 36.5414C324.843 36.5414 323.948 36.6682 323.169 36.9217C322.365 37.2006 321.677 37.4922 321.107 37.7964C320.458 38.1006 319.835 38.4429 319.239 38.8232C318.668 39.1275 318.032 39.3557 317.332 39.5078Z" fill="#FFE97F"/>
<path d="M16.9062 19.2188C16.3646 19.2188 15.7604 19.2396 15.0938 19.2812V58.5312C16.2812 58.5938 18 58.625 20.25 58.625C22.5208 58.625 24.6667 58.3854 26.6875 57.9062C28.7083 57.4062 30.3333 56.8229 31.5625 56.1562C34.2292 54.6979 36.3854 52.4896 38.0312 49.5312C39.6979 46.5729 40.5312 42.9583 40.5312 38.6875C40.5312 30.8542 37.9479 25.4688 32.7812 22.5312C28.9062 20.3229 23.6146 19.2188 16.9062 19.2188ZM9.3125 19.7812L5.6875 20.2812C2.95833 20.2812 1.59375 19.4271 1.59375 17.7188C1.59375 16.5729 2.22917 15.7396 3.5 15.2188C4.77083 14.6771 7.28125 14.4062 11.0312 14.4062H17.0312C32.3438 14.4062 41.6667 18.9792 45 28.125C46.0833 31.0625 46.625 34.1354 46.625 37.3438C46.625 43.1562 45.2708 48.1458 42.5625 52.3125C39.875 56.4792 36.5 59.3854 32.4375 61.0312C28.375 62.6562 23.875 63.4688 18.9375 63.4688L12.3438 63C11.1146 63 9.98958 63.0625 8.96875 63.1875C7.94792 63.3333 7.03125 63.4062 6.21875 63.4062C3.65625 63.4062 2.375 62.4688 2.375 60.5938C2.375 58.6979 3.89583 57.75 6.9375 57.75H8.25C8.60417 57.75 8.95833 57.7708 9.3125 57.8125V19.7812ZM74.0625 50C70.6875 49.3542 67.6875 49.0312 65.0625 49.0312C62.4583 49.0312 60.5312 49.5521 59.2812 50.5938C58.0521 51.6146 57.4375 52.7812 57.4375 54.0938C57.4375 55.4062 58.0104 56.4896 59.1562 57.3438C60.3021 58.1771 61.9062 58.5938 63.9688 58.5938C68.1979 58.5938 71.5625 57.2292 74.0625 54.5V50ZM74.7812 59.3438C72.4896 62.0938 68.6875 63.4688 63.375 63.4688C59.8333 63.4688 57.0104 62.6562 54.9062 61.0312C52.8229 59.4062 51.7812 57.2083 51.7812 54.4375C51.7812 49.8333 54.3333 46.8333 59.4375 45.4375C61.1667 44.9792 63.3958 44.75 66.125 44.75C68.875 44.75 71.5208 45.0625 74.0625 45.6875V42.25C74.0625 38.8125 72.6875 36.7083 69.9375 35.9375C68.9583 35.6458 67.6458 35.5 66 35.5C62.4792 35.5 60.4479 36.4375 59.9062 38.3125C59.5729 39.3125 58.9792 40.0312 58.125 40.4688C57.75 40.6562 57.3229 40.75 56.8438 40.75C54.8646 40.75 53.875 39.6875 53.875 37.5625C53.875 35.75 55.0625 34.1458 57.4375 32.75C59.8333 31.3542 62.8646 30.6562 66.5312 30.6562C72.7396 30.6562 76.75 32.8542 78.5625 37.25C79.1667 38.75 79.4688 40.5208 79.4688 42.5625V50.6562C79.4688 53.4896 79.5833 55.3958 79.8125 56.375C80.0417 57.3333 80.4688 58.0104 81.0938 58.4062C82.1979 59.1146 82.75 59.9375 82.75 60.875C82.75 62.6042 81.6562 63.4688 79.4688 63.4688C77.3021 63.4688 75.7396 62.0938 74.7812 59.3438ZM106.594 63L98.5 62.8125C97.5625 62.8125 96.875 62.8229 96.4375 62.8438L95.0625 62.9062C94.0208 62.9688 93.1042 63 92.3125 63C90.2917 63 89.2812 62.2292 89.2812 60.6875C89.2812 59.9375 89.5938 59.3542 90.2188 58.9375C90.8646 58.5208 91.7188 58.3125 92.7812 58.3125H95.5938V37.9375C95.5938 36.6875 95.3229 36.0625 94.7812 36.0625C94.5312 36.0625 94.1354 36.1354 93.5938 36.2812C93.0729 36.4271 92.4792 36.5 91.8125 36.5C91.1667 36.5 90.5833 36.2812 90.0625 35.8438C89.5417 35.4062 89.2812 34.8125 89.2812 34.0625C89.2812 32.4792 90.4062 31.5729 92.6562 31.3438C94.0521 31.2188 95.1875 31.0312 96.0625 30.7812C96.9583 30.5312 97.8229 30.4062 98.6562 30.4062C100.219 30.4062 101 31.4062 101 33.4062V38.2188C102.625 34.6354 105.292 32.2917 109 31.1875C110.188 30.8333 111.375 30.6562 112.562 30.6562C114.792 30.6562 116.583 31.1875 117.938 32.25C119.312 33.2917 120 34.7917 120 36.75C120 38.7083 119.656 40.2083 118.969 41.25C118.281 42.2917 117.365 42.8125 116.219 42.8125C114.427 42.8125 113.531 42 113.531 40.375C113.531 40.0417 113.562 39.7708 113.625 39.5625L113.875 38.875C114.062 38.3542 114.156 37.8229 114.156 37.2812C114.156 36.0938 113.146 35.5 111.125 35.5C109.104 35.5 107.125 36.6458 105.188 38.9375C103.271 41.2292 101.875 44.25 101 48V58.3125H106.062C108.729 58.3125 110.062 59.1354 110.062 60.7812C110.062 61.3646 109.802 61.8854 109.281 62.3438C108.781 62.7812 107.885 63 106.594 63ZM139.25 63L133.531 62.8125L130.375 62.9062C129.562 62.9688 128.74 63 127.906 63C125.906 63 124.906 62.2292 124.906 60.6875C124.906 59.9375 125.219 59.3542 125.844 58.9375C126.469 58.5208 127.333 58.3125 128.438 58.3125H131.125V20.75C131.125 19.5 130.875 18.875 130.375 18.875C130.208 18.875 130.021 18.8958 129.812 18.9375L129.062 19.125C128.542 19.2292 128.062 19.2812 127.625 19.2812C125.792 19.2812 124.875 18.4375 124.875 16.75C124.875 16.0833 125.167 15.5208 125.75 15.0625C126.333 14.5833 127.229 14.2917 128.438 14.1875C129.667 14.0625 130.573 13.9167 131.156 13.75L132.562 13.3438C132.938 13.2396 133.344 13.1875 133.781 13.1875C135.677 13.1875 136.625 14.1979 136.625 16.2188V45.875C140.979 44.4375 144.854 42.125 148.25 38.9375C149.354 37.8958 150.281 36.8125 151.031 35.6875L147.469 35.875C146.469 35.875 145.677 35.6562 145.094 35.2188C144.531 34.7812 144.25 34.2083 144.25 33.5C144.25 32.7708 144.552 32.1875 145.156 31.75C145.76 31.3125 146.625 31.0938 147.75 31.0938L154.188 31.3438L159.656 30.9688C160.76 30.9688 161.552 31.1979 162.031 31.6562C162.531 32.1146 162.781 32.6771 162.781 33.3438C162.781 34.9271 161.688 35.7188 159.5 35.7188H158.5C158.104 35.7188 157.646 35.6979 157.125 35.6562C155.292 38.5938 152.51 41.4792 148.781 44.3125C151.073 46.9167 152.99 49.4896 154.531 52.0312L158.25 58.3125H160.375C163 58.3125 164.312 59.1354 164.312 60.7812C164.312 61.3646 164.062 61.8854 163.562 62.3438C163.062 62.7812 162.406 63 161.594 63L155.562 62.8125L152.406 62.9062C151.594 62.9688 150.667 63 149.625 63C147.625 63 146.625 62.2292 146.625 60.6875C146.625 59.9375 146.938 59.3542 147.562 58.9375C148.188 58.5208 149.052 58.3125 150.156 58.3125H152.281C149.656 53.6667 147.104 49.9271 144.625 47.0938C141.854 48.7396 139.188 49.9271 136.625 50.6562V58.3125H138.031C140.656 58.3125 141.969 59.1354 141.969 60.7812C141.969 61.3646 141.719 61.8854 141.219 62.3438C140.719 62.7812 140.062 63 139.25 63ZM217.906 13.9688C217.865 13.7396 217.844 13.4167 217.844 13C217.844 12.5625 218.073 12.1458 218.531 11.75C219.01 11.3542 219.531 11.1562 220.094 11.1562C220.656 11.1562 221.229 11.4271 221.812 11.9688C222.396 12.5104 223.062 13.5729 223.812 15.1562C224.583 16.7188 225.406 18.0521 226.281 19.1562L228.062 21.375C228.979 22.5208 229.438 23.5104 229.438 24.3438C229.438 26.0729 228.667 26.9375 227.125 26.9375C225.896 26.9375 224.667 25.9479 223.438 23.9688C222.208 21.9896 221.167 20.6771 220.312 20.0312C219.479 19.3854 218.51 19.0625 217.406 19.0625C210.594 19.0625 206.25 21 204.375 24.875C204.104 25.3958 203.969 25.9896 203.969 26.6562C203.969 28.1979 204.625 29.3958 205.938 30.25C207.25 31.1042 209.625 31.6979 213.062 32.0312C219.812 32.6771 224.677 34.1771 227.656 36.5312C230.698 38.9688 232.219 42.375 232.219 46.75C232.219 49.9167 231.312 52.7917 229.5 55.375C227.708 57.9583 225.479 59.9062 222.812 61.2188C219.75 62.7188 216.042 63.4688 211.688 63.4688C210.521 63.4688 209.396 63.3958 208.312 63.25C207.917 64.25 207.49 64.9688 207.031 65.4062C206.594 65.8438 206.031 66.0625 205.344 66.0625C203.594 66.0625 202.635 65.2292 202.469 63.5625C202.323 61.8958 201.562 60.0625 200.188 58.0625L196.188 52.5C194.938 50.7292 194.219 49.5521 194.031 48.9688C193.865 48.3854 193.781 47.8333 193.781 47.3125C193.781 46.7708 193.969 46.2708 194.344 45.8125C194.719 45.3542 195.26 45.125 195.969 45.125C196.698 45.125 197.375 45.3646 198 45.8438C198.646 46.3021 199.365 47.2292 200.156 48.625C202.052 51.9792 203.708 54.2812 205.125 55.5312C207.167 57.3438 210.385 58.25 214.781 58.25C216.281 58.25 217.823 57.9688 219.406 57.4062C220.99 56.8229 222.302 56.0625 223.344 55.125C225.49 53.1458 226.562 50.5729 226.562 47.4062C226.562 44.2396 225.312 41.8646 222.812 40.2812C220.333 38.6771 216.312 37.6146 210.75 37.0938C202.125 36.2188 197.812 32.9792 197.812 27.375C197.812 25.125 198.896 22.9167 201.062 20.75C204.792 17.0208 210.406 14.7604 217.906 13.9688ZM251.875 63L246 62.8125C245.125 62.8125 244.469 62.8229 244.031 62.8438L242.656 62.9062C241.615 62.9688 240.698 63 239.906 63C237.885 63 236.875 62.2292 236.875 60.6875C236.875 59.9375 237.188 59.3542 237.812 58.9375C238.458 58.5208 239.312 58.3125 240.375 58.3125H243.188V20.75C243.188 19.5 242.938 18.875 242.438 18.875C242.229 18.875 242.021 18.8958 241.812 18.9375L241.094 19.125C240.531 19.2292 239.948 19.2812 239.344 19.2812C238.74 19.2812 238.177 19.0729 237.656 18.6562C237.135 18.2396 236.875 17.6458 236.875 16.875C236.875 15.3125 238 14.4167 240.25 14.1875C241.667 14.0625 242.823 13.8646 243.719 13.5938C244.615 13.3229 245.458 13.1875 246.25 13.1875C247.812 13.1875 248.594 14.1979 248.594 16.2188V37.3125C249.49 35.5 250.938 33.9375 252.938 32.625C254.938 31.3125 257.052 30.6562 259.281 30.6562C266.802 30.6562 270.562 34.3229 270.562 41.6562V58.3125H272.656C275.281 58.3125 276.594 59.1354 276.594 60.7812C276.594 61.3646 276.344 61.8854 275.844 62.3438C275.344 62.7812 274.688 63 273.875 63L267.938 62.8125C267.062 62.8125 266.406 62.8229 265.969 62.8438L264.594 62.9062C263.594 62.9688 262.677 63 261.844 63C259.844 63 258.844 62.2292 258.844 60.6875C258.844 59.9375 259.156 59.3542 259.781 58.9375C260.406 58.5208 261.271 58.3125 262.375 58.3125H265.094V43.6875C265.094 39.3125 263.865 36.75 261.406 36C260.615 35.7708 259.698 35.6562 258.656 35.6562C256.49 35.6562 254.427 36.5521 252.469 38.3438C250.531 40.1146 249.24 42.3125 248.594 44.9375V58.3125H250.688C253.312 58.3125 254.625 59.1354 254.625 60.7812C254.625 61.3646 254.365 61.8854 253.844 62.3438C253.344 62.7812 252.688 63 251.875 63ZM303.406 57.125C301.344 61.3542 297.885 63.4688 293.031 63.4688C291.448 63.4688 289.979 63.1875 288.625 62.625C284.854 61.0417 282.969 57.5729 282.969 52.2188V38.1875C282.969 36.9792 282.698 36.375 282.156 36.375L279.844 36.75C277.99 36.75 277.062 35.8958 277.062 34.1875C277.062 32.6667 278.062 31.8125 280.062 31.625C281.25 31.5208 282.177 31.375 282.844 31.1875L284.438 30.8125C284.833 30.7083 285.396 30.6562 286.125 30.6562C286.854 30.6562 287.417 30.9375 287.812 31.5C288.208 32.0625 288.406 32.7812 288.406 33.6562V50.1875C288.406 54.375 289.458 56.9583 291.562 57.9375C292.333 58.2917 293.24 58.4688 294.281 58.4688C296.24 58.4688 298.062 57.5104 299.75 55.5938C301.438 53.6771 302.625 51.3333 303.312 48.5625V38.1875C303.312 37.3958 303.24 36.8958 303.094 36.6875C302.948 36.4792 302.74 36.375 302.469 36.375L300.281 36.75C298.427 36.75 297.5 35.8958 297.5 34.1875C297.5 32.6667 298.521 31.8125 300.562 31.625C301.646 31.5208 302.531 31.3854 303.219 31.2188L304.781 30.8125C305.156 30.7083 305.708 30.6562 306.438 30.6562C307.188 30.6562 307.75 30.9375 308.125 31.5C308.521 32.0625 308.719 32.7812 308.719 33.6562V50.6562C308.719 54.5729 309.198 56.9792 310.156 57.875C310.448 58.1458 310.833 58.375 311.312 58.5625C312.146 58.8958 312.562 59.5521 312.562 60.5312C312.562 62.4896 311.396 63.4688 309.062 63.4688C306.75 63.4688 305.104 62.3125 304.125 60C303.771 59.1875 303.531 58.2292 303.406 57.125Z" fill="#FFE97F"/>
<path d="M385.75 56.3125C387.104 56.3125 387.781 57.1042 387.781 58.6875C387.781 59.875 387.01 60.9688 385.469 61.9688C383.948 62.9688 382.156 63.4688 380.094 63.4688C376.615 63.4688 374.292 61.8229 373.125 58.5312C372.729 57.4062 372.531 56.0729 372.531 54.5312V20.7188C372.531 19.9062 372.458 19.3958 372.312 19.1875C372.188 18.9792 372 18.875 371.75 18.875L369.031 19.25C368.219 19.25 367.542 19.0417 367 18.625C366.479 18.2083 366.219 17.625 366.219 16.875C366.219 15.2917 367.344 14.3854 369.594 14.1562C371.052 14.0312 372.188 13.8438 373 13.5938C373.833 13.3229 374.677 13.1875 375.531 13.1875C377.156 13.1875 377.969 14.1875 377.969 16.1875V50.9688C377.969 53.8854 378.115 55.75 378.406 56.5625C378.698 57.3542 379.021 57.875 379.375 58.125C379.729 58.375 380.271 58.5 381 58.5C381.75 58.5 382.417 58.2396 383 57.7188C383.604 57.1979 384.073 56.8333 384.406 56.625C384.74 56.4167 385.188 56.3125 385.75 56.3125ZM397.656 44.125L399.812 44.1875C400.521 44.2083 402.792 44.2188 406.625 44.2188C410.458 44.2188 412.969 43.9062 414.156 43.2812C415.344 42.6562 415.938 41.7083 415.938 40.4375C415.938 39.1667 415.219 38.0417 413.781 37.0625C412.344 36.0833 410.75 35.5938 409 35.5938C405.938 35.5938 403.417 36.375 401.438 37.9375C399.458 39.5 398.198 41.5625 397.656 44.125ZM418.625 53.1562C420.458 53.1562 421.375 53.9792 421.375 55.625C421.375 56.375 421.083 57.2188 420.5 58.1562C419.938 59.0729 419.104 59.9271 418 60.7188C415.417 62.5521 412.031 63.4688 407.844 63.4688C403.677 63.4688 400.062 62.0625 397 59.25C395.479 57.8542 394.26 56.1354 393.344 54.0938C392.427 52.0521 391.969 49.8125 391.969 47.375C391.969 42.625 393.531 38.6562 396.656 35.4688C399.781 32.2604 403.719 30.6562 408.469 30.6562C412.427 30.6562 415.562 31.625 417.875 33.5625C420.208 35.4792 421.375 37.8438 421.375 40.6562C421.375 43.4688 420.24 45.5729 417.969 46.9688C415.698 48.3438 411.385 49.0312 405.031 49.0312C403.344 49.0312 400.844 48.9688 397.531 48.8438C397.906 52.0729 399.156 54.5 401.281 56.125C403.406 57.7292 405.625 58.5312 407.938 58.5312C410.25 58.5312 412.073 58.2812 413.406 57.7812C414.76 57.2604 415.729 56.3646 416.312 55.0938C416.917 53.8021 417.688 53.1562 418.625 53.1562Z" fill="#FFE97F"/>
</svg>
