<svg width="540" height="56" viewBox="0 0 540 56" fill="none" xmlns="http://www.w3.org/2000/svg">
<path d="M25.272 2.6C27.72 2.6 30.024 3.08 32.184 4.04C34.344 4.952 36.24 6.224 37.872 7.856C39.504 9.44 40.776 11.312 41.688 13.472C42.648 15.632 43.128 17.936 43.128 20.384C43.128 22.832 42.648 25.136 41.688 27.296C40.776 29.456 39.504 31.328 37.872 32.912C36.24 34.496 34.344 35.768 32.184 36.728C30.024 37.64 27.72 38.096 25.272 38.096H19.656L14.184 28.016H25.272C26.328 28.016 27.312 27.824 28.224 27.44C29.184 27.008 30 26.432 30.672 25.712C31.344 24.944 31.872 24.056 32.256 23.048C32.688 21.992 32.904 20.84 32.904 19.592C32.904 18.536 32.688 17.528 32.256 16.568C31.872 15.56 31.344 14.672 30.672 13.904C30 13.136 29.184 12.512 28.224 12.032C27.312 11.552 26.328 11.312 25.272 11.312H12.528V53H2.52V2.6H25.272ZM76.4657 18.44L75.6017 19.88L71.9297 26.432L71.8577 26.36C70.2737 25.448 68.5697 24.992 66.7457 24.992C65.4977 24.992 64.3217 25.208 63.2177 25.64C62.1137 26.024 61.1297 26.6 60.2657 27.368C59.4017 28.088 58.6577 28.952 58.0337 29.96C57.4577 30.968 57.0737 32.048 56.8817 33.2V53H47.0897V17H56.8817V21.68C59.4257 18.176 63.1457 16.424 68.0417 16.424C70.9217 16.424 73.7057 17.096 76.3937 18.44H76.4657ZM92.5802 16.424C95.1722 16.424 97.5962 16.928 99.8522 17.936C102.108 18.896 104.076 20.216 105.756 21.896C107.436 23.576 108.756 25.544 109.716 27.8C110.724 30.056 111.228 32.456 111.228 35C111.228 37.544 110.724 39.944 109.716 42.2C108.756 44.456 107.436 46.424 105.756 48.104C104.076 49.784 102.108 51.128 99.8522 52.136C97.5962 53.096 95.1722 53.576 92.5802 53.576C89.9882 53.576 87.5642 53.096 85.3082 52.136C83.0522 51.128 81.0842 49.784 79.4042 48.104C77.7242 46.424 76.3802 44.456 75.3722 42.2C74.4122 39.944 73.9322 37.544 73.9322 35C73.9322 32.456 74.4122 30.056 75.3722 27.8C76.3802 25.544 77.7242 23.576 79.4042 21.896C81.0842 20.216 83.0522 18.896 85.3082 17.936C87.5642 16.928 89.9882 16.424 92.5802 16.424ZM92.5802 45.008C93.7802 45.008 94.8842 44.744 95.8922 44.216C96.9482 43.688 97.8602 42.968 98.6282 42.056C99.4442 41.096 100.068 40.016 100.5 38.816C100.98 37.568 101.22 36.224 101.22 34.784C101.22 33.44 100.98 32.168 100.5 30.968C100.068 29.72 99.4442 28.664 98.6282 27.8C97.8602 26.888 96.9482 26.168 95.8922 25.64C94.8842 25.112 93.7802 24.848 92.5802 24.848C91.3802 24.848 90.2522 25.112 89.1962 25.64C88.1402 26.168 87.2042 26.888 86.3882 27.8C85.6202 28.664 84.9962 29.72 84.5162 30.968C84.0842 32.168 83.8682 33.44 83.8682 34.784C83.8682 36.224 84.0842 37.568 84.5162 38.816C84.9962 40.016 85.6202 41.096 86.3882 42.056C87.2042 42.968 88.1402 43.688 89.1962 44.216C90.2522 44.744 91.3802 45.008 92.5802 45.008ZM119.438 17.072L128.726 43.136L122.39 49.688L109.142 17H119.438V17.072ZM139.166 17H149.39L134.63 53H126.278L129.23 44.72L139.166 17ZM187.144 17V53H177.712V35C177.712 33.608 177.448 32.312 176.92 31.112C176.392 29.912 175.648 28.856 174.688 27.944C173.776 27.032 172.696 26.336 171.448 25.856C170.248 25.328 168.976 25.064 167.632 25.064C166.24 25.064 164.944 25.328 163.744 25.856C162.544 26.384 161.464 27.104 160.504 28.016C159.592 28.88 158.872 29.936 158.344 31.184C157.816 32.384 157.552 33.68 157.552 35.072C157.552 36.416 157.816 37.688 158.344 38.888C158.872 40.088 159.592 41.144 160.504 42.056C161.464 42.968 162.544 43.688 163.744 44.216C164.944 44.744 166.24 45.008 167.632 45.008C169.12 45.008 170.392 44.744 171.448 44.216H171.52V44.36L175.12 50.768L175.048 50.84C172.696 52.664 169.792 53.576 166.336 53.576C163.792 53.576 161.392 53.096 159.136 52.136C156.88 51.176 154.912 49.856 153.232 48.176C151.552 46.496 150.208 44.528 149.2 42.272C148.24 40.016 147.76 37.616 147.76 35.072C147.76 32.48 148.24 30.056 149.2 27.8C150.208 25.544 151.552 23.576 153.232 21.896C154.912 20.216 156.88 18.896 159.136 17.936C161.392 16.928 163.792 16.424 166.336 16.424C168.832 16.424 171.016 16.904 172.888 17.864C174.76 18.776 176.368 20.12 177.712 21.896V17H187.144ZM213.023 16.568C215.567 16.568 217.967 17.048 220.223 18.008C222.479 18.968 224.447 20.288 226.127 21.968C227.807 23.648 229.127 25.616 230.087 27.872C231.095 30.128 231.599 32.528 231.599 35.072C231.599 37.616 231.095 40.016 230.087 42.272C229.127 44.528 227.807 46.496 226.127 48.176C224.447 49.856 222.479 51.176 220.223 52.136C217.967 53.096 215.567 53.576 213.023 53.576C208.079 53.576 204.311 51.752 201.719 48.104V53H192.215V2.6H201.791V35.072C201.791 36.464 202.055 37.76 202.583 38.96C203.111 40.16 203.807 41.216 204.671 42.128C205.583 42.992 206.639 43.688 207.839 44.216C209.087 44.744 210.407 45.008 211.799 45.008C213.143 45.008 214.415 44.744 215.615 44.216C216.863 43.688 217.919 42.992 218.783 42.128C219.695 41.216 220.415 40.16 220.943 38.96C221.471 37.76 221.735 36.464 221.735 35.072C221.735 33.68 221.471 32.384 220.943 31.184C220.415 29.984 219.695 28.928 218.783 28.016C217.919 27.104 216.863 26.408 215.615 25.928C214.415 25.4 213.143 25.136 211.799 25.136C210.503 25.136 209.207 25.4 207.911 25.928L207.839 26L207.767 25.856L204.239 19.376L204.311 19.304C206.663 17.48 209.567 16.568 213.023 16.568ZM235.248 2.6H244.752V53H235.176L235.248 2.6ZM267.098 16.424C269.642 16.424 272.042 16.928 274.298 17.936C276.554 18.896 278.522 20.216 280.202 21.896C281.882 23.576 283.202 25.544 284.162 27.8C285.17 30.056 285.674 32.48 285.674 35.072C285.674 36.464 285.53 37.808 285.242 39.104L285.17 39.248H266.882L262.274 31.904H275.954C275.282 29.888 274.154 28.232 272.57 26.936C271.034 25.64 269.21 24.992 267.098 24.992C265.802 24.992 264.578 25.256 263.426 25.784C262.274 26.312 261.266 27.032 260.402 27.944C259.586 28.808 258.938 29.864 258.458 31.112C257.978 32.312 257.738 33.632 257.738 35.072C257.738 36.176 257.954 37.328 258.386 38.528C258.818 39.68 259.442 40.736 260.258 41.696C261.074 42.656 262.058 43.472 263.21 44.144C264.362 44.768 265.658 45.08 267.098 45.08C268.394 45.08 269.57 44.912 270.626 44.576C271.73 44.192 272.762 43.376 273.722 42.128L273.794 42.056L273.938 42.128L282.29 45.8L282.146 45.944C280.418 48.344 278.21 50.216 275.522 51.56C272.882 52.904 270.074 53.576 267.098 53.576C264.506 53.576 262.058 53.096 259.754 52.136C257.498 51.176 255.53 49.856 253.85 48.176C252.17 46.496 250.826 44.528 249.818 42.272C248.858 40.016 248.378 37.616 248.378 35.072C248.378 32.48 248.858 30.056 249.818 27.8C250.826 25.544 252.17 23.576 253.85 21.896C255.53 20.216 257.498 18.896 259.754 17.936C262.058 16.928 264.506 16.424 267.098 16.424Z" fill="white"/>
<path d="M360.344 23.48C360.44 24.2 360.512 24.92 360.56 25.64C360.608 26.36 360.632 27.08 360.632 27.8C360.632 31.352 359.984 34.712 358.688 37.88C357.44 41 355.688 43.736 353.432 46.088C351.224 48.392 348.584 50.216 345.512 51.56C342.44 52.904 339.128 53.576 335.576 53.576C332.024 53.576 328.664 52.904 325.496 51.56C322.376 50.216 319.64 48.392 317.288 46.088C314.984 43.736 313.16 41 311.816 37.88C310.472 34.712 309.8 31.352 309.8 27.8C309.8 24.248 310.472 20.912 311.816 17.792C313.16 14.624 314.984 11.888 317.288 9.584C319.64 7.232 322.376 5.384 325.496 4.04C328.664 2.696 332.024 2.024 335.576 2.024C340.232 2.024 344.456 3.152 348.248 5.408C352.088 7.616 355.16 10.544 357.464 14.192L349.04 19.592C347.744 17 345.896 14.936 343.496 13.4C341.144 11.816 338.504 11.024 335.576 11.024C333.416 11.024 331.4 11.48 329.528 12.392C327.656 13.256 326.024 14.456 324.632 15.992C323.24 17.48 322.136 19.256 321.32 21.32C320.504 23.336 320.096 25.496 320.096 27.8C320.096 30.104 320.504 32.288 321.32 34.352C322.136 36.368 323.24 38.144 324.632 39.68C326.024 41.168 327.656 42.368 329.528 43.28C331.4 44.144 333.416 44.576 335.576 44.576C337.304 44.576 338.936 44.288 340.472 43.712C342.008 43.136 343.376 42.32 344.576 41.264C345.776 40.208 346.808 38.984 347.672 37.592C348.584 36.152 349.256 34.568 349.688 32.84H336.008L331.4 23.48H360.344ZM401.488 17V53H392.056V35C392.056 33.608 391.792 32.312 391.264 31.112C390.736 29.912 389.992 28.856 389.032 27.944C388.12 27.032 387.04 26.336 385.792 25.856C384.592 25.328 383.32 25.064 381.976 25.064C380.584 25.064 379.288 25.328 378.088 25.856C376.888 26.384 375.808 27.104 374.848 28.016C373.936 28.88 373.216 29.936 372.688 31.184C372.16 32.384 371.896 33.68 371.896 35.072C371.896 36.416 372.16 37.688 372.688 38.888C373.216 40.088 373.936 41.144 374.848 42.056C375.808 42.968 376.888 43.688 378.088 44.216C379.288 44.744 380.584 45.008 381.976 45.008C383.464 45.008 384.736 44.744 385.792 44.216H385.864V44.36L389.464 50.768L389.392 50.84C387.04 52.664 384.136 53.576 380.68 53.576C378.136 53.576 375.736 53.096 373.48 52.136C371.224 51.176 369.256 49.856 367.576 48.176C365.896 46.496 364.552 44.528 363.544 42.272C362.584 40.016 362.104 37.616 362.104 35.072C362.104 32.48 362.584 30.056 363.544 27.8C364.552 25.544 365.896 23.576 367.576 21.896C369.256 20.216 371.224 18.896 373.48 17.936C375.736 16.928 378.136 16.424 380.68 16.424C383.176 16.424 385.36 16.904 387.232 17.864C389.104 18.776 390.712 20.12 392.056 21.896V17H401.488ZM406.558 17H416.134V53H406.558V17ZM445.582 16.424C447.838 16.424 449.734 16.88 451.27 17.792C452.854 18.656 454.126 19.808 455.086 21.248C456.046 22.688 456.742 24.32 457.174 26.144C457.606 27.92 457.822 29.72 457.822 31.544V53H448.246L448.318 31.544C448.318 30.776 448.174 30.056 447.886 29.384C447.598 28.712 447.19 28.112 446.662 27.584C446.182 27.056 445.582 26.648 444.862 26.36C444.19 26.024 443.47 25.856 442.702 25.856C441.118 25.856 439.774 26.432 438.67 27.584C437.566 28.688 437.014 30.008 437.014 31.544V53H427.438V31.544C427.438 30.776 427.294 30.056 427.006 29.384C426.718 28.712 426.31 28.112 425.782 27.584C425.254 27.056 424.63 26.648 423.91 26.36C423.238 26.072 422.47 25.928 421.606 25.928C421.558 25.928 421.342 25.568 420.958 24.848C420.574 24.128 420.142 23.336 419.662 22.472C419.134 21.464 418.486 20.312 417.718 19.016L417.79 18.872C419.854 17.24 422.134 16.424 424.63 16.424C427.318 16.424 429.502 17.024 431.182 18.224C432.862 19.424 434.158 20.912 435.07 22.688C435.262 22.352 435.454 22.064 435.646 21.824C436.99 20.048 438.502 18.704 440.182 17.792C441.91 16.88 443.71 16.424 445.582 16.424ZM480.176 16.424C482.72 16.424 485.12 16.928 487.376 17.936C489.632 18.896 491.6 20.216 493.28 21.896C494.96 23.576 496.28 25.544 497.24 27.8C498.248 30.056 498.752 32.48 498.752 35.072C498.752 36.464 498.608 37.808 498.32 39.104L498.248 39.248H479.96L475.352 31.904H489.032C488.36 29.888 487.232 28.232 485.648 26.936C484.112 25.64 482.288 24.992 480.176 24.992C478.88 24.992 477.656 25.256 476.504 25.784C475.352 26.312 474.344 27.032 473.48 27.944C472.664 28.808 472.016 29.864 471.536 31.112C471.056 32.312 470.816 33.632 470.816 35.072C470.816 36.176 471.032 37.328 471.464 38.528C471.896 39.68 472.52 40.736 473.336 41.696C474.152 42.656 475.136 43.472 476.288 44.144C477.44 44.768 478.736 45.08 480.176 45.08C481.472 45.08 482.648 44.912 483.704 44.576C484.808 44.192 485.84 43.376 486.8 42.128L486.872 42.056L487.016 42.128L495.368 45.8L495.224 45.944C493.496 48.344 491.288 50.216 488.6 51.56C485.96 52.904 483.152 53.576 480.176 53.576C477.584 53.576 475.136 53.096 472.832 52.136C470.576 51.176 468.608 49.856 466.928 48.176C465.248 46.496 463.904 44.528 462.896 42.272C461.936 40.016 461.456 37.616 461.456 35.072C461.456 32.48 461.936 30.056 462.896 27.8C463.904 25.544 465.248 23.576 466.928 21.896C468.608 20.216 470.576 18.896 472.832 17.936C475.136 16.928 477.584 16.424 480.176 16.424ZM517.505 31.616C519.089 32.144 520.529 32.696 521.825 33.272C523.169 33.8 524.321 34.448 525.281 35.216C526.289 35.984 527.057 36.92 527.585 38.024C528.161 39.08 528.449 40.352 528.449 41.84V41.912C528.449 45.56 527.225 48.416 524.777 50.48C522.377 52.544 518.993 53.576 514.625 53.576C511.889 53.576 509.201 53.12 506.561 52.208C503.921 51.248 501.449 49.904 499.145 48.176L499.073 48.104L499.145 48.032L504.041 40.328L504.113 40.4C505.553 41.936 507.185 43.112 509.009 43.928C510.833 44.696 512.777 45.08 514.841 45.08C517.673 45.08 519.089 44.168 519.089 42.344C519.089 41.48 518.633 40.832 517.721 40.4C516.809 39.968 515.729 39.56 514.481 39.176C514.241 39.08 514.001 39.032 513.761 39.032C513.569 38.984 513.353 38.912 513.113 38.816C511.673 38.432 510.233 38.024 508.793 37.592C507.353 37.112 506.057 36.488 504.905 35.72C503.753 34.904 502.793 33.896 502.025 32.696C501.305 31.448 500.945 29.864 500.945 27.944V27.8C500.945 26.12 501.257 24.584 501.881 23.192C502.505 21.8 503.393 20.6 504.545 19.592C505.697 18.584 507.089 17.816 508.721 17.288C510.353 16.712 512.153 16.424 514.121 16.424C516.425 16.424 518.753 16.784 521.105 17.504C523.457 18.176 525.641 19.184 527.657 20.528V20.672L523.265 28.664L523.193 28.592C522.089 27.488 520.721 26.624 519.089 26C517.457 25.328 515.729 24.992 513.905 24.992C513.569 24.992 513.185 25.016 512.753 25.064C512.321 25.112 511.913 25.232 511.529 25.424C511.193 25.616 510.905 25.88 510.665 26.216C510.425 26.504 510.305 26.936 510.305 27.512C510.305 27.944 510.497 28.352 510.881 28.736C511.265 29.072 511.745 29.408 512.321 29.744C512.945 30.032 513.617 30.32 514.337 30.608C515.105 30.896 515.849 31.16 516.569 31.4C516.713 31.4 516.857 31.424 517.001 31.472C517.193 31.52 517.361 31.568 517.505 31.616Z" fill="#999999"/>
</svg>
