<svg width="380" height="42" viewBox="0 0 380 42" fill="none" xmlns="http://www.w3.org/2000/svg">
<mask id="mask0_8_55" style="mask-type:luminance" maskUnits="userSpaceOnUse" x="0" y="0" width="380" height="42">
<path d="M379.014 0.650818H0.729126V41.1288H379.014V0.650818Z" fill="white"/>
</mask>
<g mask="url(#mask0_8_55)">
<path d="M5.80654 0.650818V36.0691H21.0395V41.1288H0.729126V0.650818H5.80654ZM43.889 0.650818V5.71057H46.428V10.7703H48.9671V31.0093H46.428V36.0691H43.889V41.1288H31.1951V36.0691H28.656V31.0093H26.1177V10.7703H28.656V5.71057H31.1951V0.650818H43.889ZM33.7341 5.71057V10.7703H31.1951V31.0093H33.7341V36.0691H41.3506V31.0093H43.889V10.7703H41.3506V5.71057H33.7341ZM109.899 0.650818V5.71057H99.7434V41.1288H94.666V5.71057H84.5105V0.650818H109.899ZM163.214 10.7703V5.71057H150.52V15.8301H168.292V36.0691H165.753V41.1288H147.981V36.0691H145.442V31.0093H150.52V36.0691H163.214V20.8898H147.981V15.8301H145.442V5.71057H147.981V0.650818H165.753V5.71057H168.292V10.7703H163.214ZM180.986 0.650818V36.0691H191.141V0.650818H196.219V36.0691H193.68V41.1288H178.447V36.0691H175.908V0.650818H180.986ZM221.607 0.650818V5.71057H224.146V15.8301H219.068V20.8898H221.607V25.9496H224.146V31.0093H226.685V41.1288H221.607V31.0093H219.068V25.9496H216.529V20.8898H208.913V41.1288H203.835V0.650818H221.607ZM208.913 5.71057V15.8301H219.068V5.71057H208.913ZM239.379 0.650818V20.8898H241.918V25.9496H244.457V31.0093H246.995V25.9496H249.534V20.8898H252.073V0.650818H257.151V20.8898H254.612V25.9496H252.073V31.0093H249.534V36.0691H246.995V41.1288H244.457V36.0691H241.918V31.0093H239.379V25.9496H236.84V20.8898H234.301V0.650818H239.379ZM282.539 0.650818V5.71057H277.461V36.0691H282.539V41.1288H267.306V36.0691H272.384V5.71057H267.306V0.650818H282.539ZM297.772 0.650818V20.8898H300.31V25.9496H302.85V31.0093H305.389V25.9496H307.927V20.8898H310.466V0.650818H315.543V20.8898H313.005V25.9496H310.466V31.0093H307.927V36.0691H305.389V41.1288H302.85V36.0691H300.31V31.0093H297.772V25.9496H295.233V20.8898H292.694V0.650818H297.772ZM373.937 0.650818V5.71057H376.475V15.8301H371.398V20.8898H373.937V25.9496H376.475V31.0093H379.014V41.1288H373.937V31.0093H371.398V25.9496H368.859V20.8898H361.242V41.1288H356.165V0.650818H373.937ZM361.242 5.71057V15.8301H371.398V5.71057H361.242ZM74.3549 0.650818V5.71057H76.894V10.7703H79.4331V31.0093H76.894V36.0691H74.3549V41.1288H61.661V36.0691H59.1219V31.0093H56.5836V10.7703H59.1219V5.71057H61.661V0.650818H74.3549ZM64.2001 5.71057V10.7703H61.661V31.0093H64.2001V36.0691H71.8166V31.0093H74.3549V10.7703H71.8166V5.71057H64.2001ZM325.699 5.71057V0.650818H346.009V5.71057H348.548V31.0093H340.932V41.1288H330.776V31.0093H323.16V5.71057H325.699ZM328.238 15.8301V25.9496H333.315V31.0093H338.393V25.9496H343.471V15.8301H338.393V25.9496H333.315V15.8301H328.238Z" fill="#00FF3C"/>
</g>
</svg>
